<svg id="Capa_1" enable-background="new 0 0 512 512" height="512" viewBox="0 0 512 512" width="512" xmlns="http://www.w3.org/2000/svg"><g><g><path clip-rule="evenodd" d="m395.476 223.636-106.496 73.362v-73.361l-106.496 73.361v151.625h319.516v-224.987l-106.524 73.361zm13.436 124.99h52.808v52.818h-52.808zm-93.088 0h52.808v52.818h-52.808zm-93.088 0h52.808v52.818h-52.808z" fill="#d4eb88" fill-rule="evenodd"/></g><g><path clip-rule="evenodd" d="m222.736 348.626h52.808v52.818h-52.808z" fill="#dfedff" fill-rule="evenodd"/></g><g><path clip-rule="evenodd" d="m315.824 348.626h52.808v52.818h-52.808z" fill="#dfedff" fill-rule="evenodd"/></g><g><path clip-rule="evenodd" d="m408.912 348.626h52.808v52.818h-52.808z" fill="#dfedff" fill-rule="evenodd"/></g><g><path clip-rule="evenodd" d="m502 448.623h-319.515v49.871h106.495 106.496 106.524z" fill="#a6afc6" fill-rule="evenodd"/></g><g><path clip-rule="evenodd" d="m38.573 242.026h-28.573v256.468h50.144v-110.142c0-5.639 4.592-10.229 10.205-10.229h51.76c5.612 0 10.233 4.59 10.233 10.229v110.141h50.144v-49.871-151.624-54.972h-28.601z" fill="#e7e9ef" fill-rule="evenodd"/></g><g><path clip-rule="evenodd" d="m60.144 388.352v110.141h72.197v-110.141c0-5.639-4.62-10.229-10.233-10.229h-51.76c-5.612 0-10.204 4.591-10.204 10.229z" fill="#bfdbff" fill-rule="evenodd"/></g><g><path clip-rule="evenodd" d="m38.573 164.839h115.311v77.187h-115.311z" fill="#a6afc6" fill-rule="evenodd"/></g><g><path clip-rule="evenodd" d="m96.228 117.292h-42.83c-8.164 0-14.825 6.659-14.825 14.82v32.728h115.311v-32.728c0-8.161-6.661-14.82-14.797-14.82z" fill="#e7e9ef" fill-rule="evenodd"/></g><g><path clip-rule="evenodd" d="m13.713 17.947c7.767 41.54 42.632 61.687 82.515 47.632-7.767-41.569-42.632-61.687-82.515-47.632z" fill="#d4eb88" fill-rule="evenodd"/></g><g><path clip-rule="evenodd" d="m178.772 17.947c-39.883-14.055-74.777 6.064-82.543 47.632 39.882 14.055 74.776-6.092 82.543-47.632z" fill="#d4eb88" fill-rule="evenodd"/></g><g><path d="m506.652 214.784c-3.289-1.729-7.265-1.491-10.324.616l-90.852 62.568v-54.333c0-3.715-2.06-7.125-5.349-8.853-3.289-1.727-7.265-1.489-10.324.617l-90.823 62.565v-54.33c0-3.715-2.06-7.125-5.349-8.853-3.289-1.727-7.265-1.489-10.324.617l-90.823 62.565v-35.94c0-5.523-4.477-10-10-10h-18.601v-99.915c0-13.686-11.124-24.819-24.796-24.819h-32.859v-28.69c4.972.936 9.893 1.417 14.712 1.417 12.08 0 23.533-2.932 33.609-8.749 17.657-10.194 29.75-28.478 34.052-51.483.906-4.847-1.855-9.631-6.506-11.27-22.098-7.787-43.994-6.458-61.656 3.739-9.986 5.766-18.188 14.125-24.21 24.461-6.022-10.34-14.223-18.701-24.208-24.466-17.652-10.193-39.54-11.518-61.631-3.733-4.65 1.639-7.412 6.423-6.506 11.27 4.302 23.011 16.394 41.297 34.047 51.489 10.07 5.813 21.514 8.742 33.588 8.742 4.818 0 9.738-.481 14.708-1.417v28.693h-32.83c-13.688 0-24.825 11.134-24.825 24.819v99.915h-18.572c-5.523 0-10 4.477-10 10v256.468c0 5.523 4.477 10 10 10h492c5.523 0 10-4.477 10-10v-274.858c0-3.715-2.06-7.124-5.348-8.852zm-376.212-185.21c10.299-5.947 22.938-7.532 36.28-4.671-4.192 12.962-11.878 23.102-22.17 29.044-10.299 5.947-22.936 7.533-36.272 4.675 4.19-12.966 11.873-23.108 22.162-29.048zm-82.509 24.379c-10.29-5.941-17.974-16.083-22.167-29.05 13.337-2.859 25.967-1.276 36.257 4.665 10.286 5.939 17.967 16.083 22.158 29.054-13.329 2.855-25.957 1.272-36.248-4.669zm5.466 73.339h85.69c2.6 0 4.796 2.207 4.796 4.819v22.728h-95.31v-22.728c0-2.657 2.164-4.819 4.824-4.819zm-4.824 47.547h95.311v57.187h-95.311zm73.768 313.655h-52.197v-100.142c0-.126.124-.229.205-.229h51.759c.096 0 .233.119.233.229zm50.144 0h-30.144v-100.142c0-11.154-9.077-20.229-20.233-20.229h-51.759c-11.141 0-20.205 9.075-20.205 20.229v100.142h-30.144v-236.468h152.485zm319.515-49.871h-107.522c-5.523 0-10 4.477-10 10s4.477 10 10 10h107.522v29.871h-299.515v-29.871h102.165c5.523 0 10-4.477 10-10s-4.477-10-10-10h-102.165v-136.371l86.496-59.584v54.33c0 3.715 2.06 7.124 5.349 8.853 3.29 1.728 7.266 1.49 10.324-.617l90.823-62.565v54.33c0 3.715 2.06 7.124 5.348 8.852s7.264 1.49 10.324-.616l90.851-62.57z"/><path d="m275.544 338.626h-52.809c-5.523 0-10 4.477-10 10v52.818c0 5.523 4.477 10 10 10h52.809c5.523 0 10-4.477 10-10v-52.818c0-5.523-4.477-10-10-10zm-10 52.817h-32.809v-32.818h32.809z"/><path d="m368.632 338.626h-52.808c-5.523 0-10 4.477-10 10v52.818c0 5.523 4.477 10 10 10h52.808c5.523 0 10-4.477 10-10v-52.818c0-5.523-4.477-10-10-10zm-10 52.817h-32.808v-32.818h32.808z"/><path d="m398.912 401.443c0 5.523 4.477 10 10 10h52.808c5.523 0 10-4.477 10-10v-52.818c0-5.523-4.477-10-10-10h-52.808c-5.523 0-10 4.477-10 10zm20-42.817h32.808v32.818h-32.808z"/><path d="m339.578 438.623c-5.523 0-10 4.477-10 10s4.477 10 10 10h.028c5.523 0 9.986-4.477 9.986-10s-4.491-10-10.014-10z"/></g></g></svg>